<?xml version="1.0" encoding="UTF-8" standalone="no"?>
<!DOCTYPE svg PUBLIC "-//W3C//DTD SVG 1.1//EN"
 "http://www.w3.org/Graphics/SVG/1.1/DTD/svg11.dtd">
<!-- Generated by graphviz version 2.38.0 (20140413.2041)
 -->
<!-- Title: %3 Pages: 1 -->
<svg width="925pt" height="404pt"
 viewBox="0.00 0.00 924.69 404.00" xmlns="http://www.w3.org/2000/svg" xmlns:xlink="http://www.w3.org/1999/xlink">
<g id="graph0" class="graph" transform="scale(1 1) rotate(0) translate(4 400)">
<title>%3</title>
<polygon fill="white" stroke="none" points="-4,4 -4,-400 920.685,-400 920.685,4 -4,4"/>
<!-- (4, 7.0, 0, 1.0) -->
<g id="node1" class="node"><title>(4, 7.0, 0, 1.0)</title>
<ellipse fill="none" stroke="black" cx="849.741" cy="-90" rx="62.2891" ry="18"/>
<text text-anchor="middle" x="849.741" y="-86.3" font-family="Times,serif" font-size="14.00">(4, 7.0, 0, 1.0)</text>
</g>
<!-- End &#39;48.5&#39; -->
<g id="node2" class="node"><title>End &#39;48.5&#39;</title>
<ellipse fill="none" stroke="black" cx="542.741" cy="-18" rx="46.2923" ry="18"/>
<text text-anchor="middle" x="542.741" y="-14.3" font-family="Times,serif" font-size="14.00">End &#39;48.5&#39;</text>
</g>
<!-- (4, 7.0, 0, 1.0)&#45;&gt;End &#39;48.5&#39; -->
<g id="edge1" class="edge"><title>(4, 7.0, 0, 1.0)&#45;&gt;End &#39;48.5&#39;</title>
<path fill="none" stroke="black" d="M803.551,-77.8406C795.294,-75.8742 786.767,-73.8619 778.741,-72 714.2,-57.0269 639.571,-40.3782 591.804,-29.8069"/>
<polygon fill="black" stroke="black" points="592.552,-26.3878 582.032,-27.6461 591.04,-33.2227 592.552,-26.3878"/>
</g>
<!-- (11, 0.0, 4, 22.5, [&#39;file2&#39;]) -->
<g id="node3" class="node"><title>(11, 0.0, 4, 22.5, [&#39;file2&#39;])</title>
<ellipse fill="none" stroke="black" cx="100.741" cy="-234" rx="100.983" ry="18"/>
<text text-anchor="middle" x="100.741" y="-230.3" font-family="Times,serif" font-size="14.00">(11, 0.0, 4, 22.5, [&#39;file2&#39;])</text>
</g>
<!-- (10, 22.5, 4, 4.0) -->
<g id="node4" class="node"><title>(10, 22.5, 4, 4.0)</title>
<ellipse fill="none" stroke="black" cx="96.7411" cy="-162" rx="71.4873" ry="18"/>
<text text-anchor="middle" x="96.7411" y="-158.3" font-family="Times,serif" font-size="14.00">(10, 22.5, 4, 4.0)</text>
</g>
<!-- (11, 0.0, 4, 22.5, [&#39;file2&#39;])&#45;&gt;(10, 22.5, 4, 4.0) -->
<g id="edge2" class="edge"><title>(11, 0.0, 4, 22.5, [&#39;file2&#39;])&#45;&gt;(10, 22.5, 4, 4.0)</title>
<path fill="none" stroke="black" d="M99.7523,-215.697C99.3115,-207.983 98.7818,-198.712 98.2903,-190.112"/>
<polygon fill="black" stroke="black" points="101.783,-189.888 97.7185,-180.104 94.7947,-190.288 101.783,-189.888"/>
</g>
<!-- (8, 35.67, 2, 12.0, [&#39;file1&#39;, &#39;file2&#39;]) -->
<g id="node6" class="node"><title>(8, 35.67, 2, 12.0, [&#39;file1&#39;, &#39;file2&#39;])</title>
<ellipse fill="none" stroke="black" cx="319.741" cy="-90" rx="129.177" ry="18"/>
<text text-anchor="middle" x="319.741" y="-86.3" font-family="Times,serif" font-size="14.00">(8, 35.67, 2, 12.0, [&#39;file1&#39;, &#39;file2&#39;])</text>
</g>
<!-- (11, 0.0, 4, 22.5, [&#39;file2&#39;])&#45;&gt;(8, 35.67, 2, 12.0, [&#39;file1&#39;, &#39;file2&#39;]) -->
<g id="edge4" class="edge"><title>(11, 0.0, 4, 22.5, [&#39;file2&#39;])&#45;&gt;(8, 35.67, 2, 12.0, [&#39;file1&#39;, &#39;file2&#39;])</title>
<path fill="none" stroke="black" d="M125.78,-216.355C140.793,-206.174 160.131,-192.705 176.741,-180 196.538,-164.857 199.061,-157.912 219.741,-144 237.234,-132.232 257.63,-121.018 275.423,-111.961"/>
<polygon fill="black" stroke="black" points="277.09,-115.041 284.461,-107.43 273.953,-108.783 277.09,-115.041"/>
</g>
<!-- (13, 26.5, 4, 18.5) -->
<g id="node13" class="node"><title>(13, 26.5, 4, 18.5)</title>
<ellipse fill="none" stroke="black" cx="96.7411" cy="-90" rx="75.2868" ry="18"/>
<text text-anchor="middle" x="96.7411" y="-86.3" font-family="Times,serif" font-size="14.00">(13, 26.5, 4, 18.5)</text>
</g>
<!-- (10, 22.5, 4, 4.0)&#45;&gt;(13, 26.5, 4, 18.5) -->
<g id="edge16" class="edge"><title>(10, 22.5, 4, 4.0)&#45;&gt;(13, 26.5, 4, 18.5)</title>
<path fill="none" stroke="black" d="M96.7411,-143.697C96.7411,-135.983 96.7411,-126.712 96.7411,-118.112"/>
<polygon fill="black" stroke="black" points="100.241,-118.104 96.7411,-108.104 93.2412,-118.104 100.241,-118.104"/>
</g>
<!-- (14, 0.0, 0, 7.0) -->
<g id="node5" class="node"><title>(14, 0.0, 0, 7.0)</title>
<ellipse fill="none" stroke="black" cx="849.741" cy="-162" rx="66.8882" ry="18"/>
<text text-anchor="middle" x="849.741" y="-158.3" font-family="Times,serif" font-size="14.00">(14, 0.0, 0, 7.0)</text>
</g>
<!-- (14, 0.0, 0, 7.0)&#45;&gt;(4, 7.0, 0, 1.0) -->
<g id="edge3" class="edge"><title>(14, 0.0, 0, 7.0)&#45;&gt;(4, 7.0, 0, 1.0)</title>
<path fill="none" stroke="black" d="M849.741,-143.697C849.741,-135.983 849.741,-126.712 849.741,-118.112"/>
<polygon fill="black" stroke="black" points="853.241,-118.104 849.741,-108.104 846.241,-118.104 853.241,-118.104"/>
</g>
<!-- (8, 35.67, 2, 12.0, [&#39;file1&#39;, &#39;file2&#39;])&#45;&gt;End &#39;48.5&#39; -->
<g id="edge14" class="edge"><title>(8, 35.67, 2, 12.0, [&#39;file1&#39;, &#39;file2&#39;])&#45;&gt;End &#39;48.5&#39;</title>
<path fill="none" stroke="black" d="M369.509,-73.3778C408.159,-61.2455 461.26,-44.577 498.449,-32.9034"/>
<polygon fill="black" stroke="black" points="499.523,-36.2346 508.016,-29.9003 497.427,-29.5559 499.523,-36.2346"/>
</g>
<!-- (3, 16.0, 2, 1.0, [&#39;file1&#39;]) -->
<g id="node7" class="node"><title>(3, 16.0, 2, 1.0, [&#39;file1&#39;])</title>
<ellipse fill="none" stroke="black" cx="271.741" cy="-306" rx="96.6831" ry="18"/>
<text text-anchor="middle" x="271.741" y="-302.3" font-family="Times,serif" font-size="14.00">(3, 16.0, 2, 1.0, [&#39;file1&#39;])</text>
</g>
<!-- (3, 16.0, 2, 1.0, [&#39;file1&#39;])&#45;&gt;(8, 35.67, 2, 12.0, [&#39;file1&#39;, &#39;file2&#39;]) -->
<g id="edge5" class="edge"><title>(3, 16.0, 2, 1.0, [&#39;file1&#39;])&#45;&gt;(8, 35.67, 2, 12.0, [&#39;file1&#39;, &#39;file2&#39;])</title>
<path fill="none" stroke="black" d="M263.958,-288.012C251.194,-257.505 229.444,-192.135 252.741,-144 258.662,-131.766 268.93,-121.499 279.673,-113.359"/>
<polygon fill="black" stroke="black" points="281.758,-116.172 287.918,-107.551 277.727,-110.449 281.758,-116.172"/>
</g>
<!-- (5, 31.67, 2, 4.0, [&#39;file1&#39;]) -->
<g id="node12" class="node"><title>(5, 31.67, 2, 4.0, [&#39;file1&#39;])</title>
<ellipse fill="none" stroke="black" cx="362.741" cy="-162" rx="100.983" ry="18"/>
<text text-anchor="middle" x="362.741" y="-158.3" font-family="Times,serif" font-size="14.00">(5, 31.67, 2, 4.0, [&#39;file1&#39;])</text>
</g>
<!-- (3, 16.0, 2, 1.0, [&#39;file1&#39;])&#45;&gt;(5, 31.67, 2, 4.0, [&#39;file1&#39;]) -->
<g id="edge17" class="edge"><title>(3, 16.0, 2, 1.0, [&#39;file1&#39;])&#45;&gt;(5, 31.67, 2, 4.0, [&#39;file1&#39;])</title>
<path fill="none" stroke="black" d="M271.86,-287.904C272.75,-268.915 276.516,-238.034 290.741,-216 298.735,-203.618 310.704,-193.13 322.6,-184.834"/>
<polygon fill="black" stroke="black" points="324.758,-187.604 331.191,-179.185 320.913,-181.755 324.758,-187.604"/>
</g>
<!-- (7, 17.0, 2, 14.67) -->
<g id="node15" class="node"><title>(7, 17.0, 2, 14.67)</title>
<ellipse fill="none" stroke="black" cx="374.741" cy="-234" rx="75.2868" ry="18"/>
<text text-anchor="middle" x="374.741" y="-230.3" font-family="Times,serif" font-size="14.00">(7, 17.0, 2, 14.67)</text>
</g>
<!-- (3, 16.0, 2, 1.0, [&#39;file1&#39;])&#45;&gt;(7, 17.0, 2, 14.67) -->
<g id="edge15" class="edge"><title>(3, 16.0, 2, 1.0, [&#39;file1&#39;])&#45;&gt;(7, 17.0, 2, 14.67)</title>
<path fill="none" stroke="black" d="M296.151,-288.411C309.975,-279.016 327.441,-267.146 342.395,-256.983"/>
<polygon fill="black" stroke="black" points="344.559,-259.744 350.862,-251.228 340.624,-253.955 344.559,-259.744"/>
</g>
<!-- (12, 38.0, 1, 10.5) -->
<g id="node8" class="node"><title>(12, 38.0, 1, 10.5)</title>
<ellipse fill="none" stroke="black" cx="542.741" cy="-90" rx="75.2868" ry="18"/>
<text text-anchor="middle" x="542.741" y="-86.3" font-family="Times,serif" font-size="14.00">(12, 38.0, 1, 10.5)</text>
</g>
<!-- (12, 38.0, 1, 10.5)&#45;&gt;End &#39;48.5&#39; -->
<g id="edge6" class="edge"><title>(12, 38.0, 1, 10.5)&#45;&gt;End &#39;48.5&#39;</title>
<path fill="none" stroke="black" d="M542.741,-71.6966C542.741,-63.9827 542.741,-54.7125 542.741,-46.1124"/>
<polygon fill="black" stroke="black" points="546.241,-46.1043 542.741,-36.1043 539.241,-46.1044 546.241,-46.1043"/>
</g>
<!-- (0, 16.0, 1, 4.0) -->
<g id="node9" class="node"><title>(0, 16.0, 1, 4.0)</title>
<ellipse fill="none" stroke="black" cx="552.741" cy="-234" rx="66.8882" ry="18"/>
<text text-anchor="middle" x="552.741" y="-230.3" font-family="Times,serif" font-size="14.00">(0, 16.0, 1, 4.0)</text>
</g>
<!-- (2, 20.0, 1, 18.0) -->
<g id="node10" class="node"><title>(2, 20.0, 1, 18.0)</title>
<ellipse fill="none" stroke="black" cx="552.741" cy="-162" rx="71.4873" ry="18"/>
<text text-anchor="middle" x="552.741" y="-158.3" font-family="Times,serif" font-size="14.00">(2, 20.0, 1, 18.0)</text>
</g>
<!-- (0, 16.0, 1, 4.0)&#45;&gt;(2, 20.0, 1, 18.0) -->
<g id="edge7" class="edge"><title>(0, 16.0, 1, 4.0)&#45;&gt;(2, 20.0, 1, 18.0)</title>
<path fill="none" stroke="black" d="M552.741,-215.697C552.741,-207.983 552.741,-198.712 552.741,-190.112"/>
<polygon fill="black" stroke="black" points="556.241,-190.104 552.741,-180.104 549.241,-190.104 556.241,-190.104"/>
</g>
<!-- (2, 20.0, 1, 18.0)&#45;&gt;(12, 38.0, 1, 10.5) -->
<g id="edge8" class="edge"><title>(2, 20.0, 1, 18.0)&#45;&gt;(12, 38.0, 1, 10.5)</title>
<path fill="none" stroke="black" d="M550.269,-143.697C549.167,-135.983 547.843,-126.712 546.614,-118.112"/>
<polygon fill="black" stroke="black" points="550.064,-117.509 545.185,-108.104 543.134,-118.499 550.064,-117.509"/>
</g>
<!-- (9, 2.33, 2, 12.33) -->
<g id="node11" class="node"><title>(9, 2.33, 2, 12.33)</title>
<ellipse fill="none" stroke="black" cx="271.741" cy="-378" rx="75.2868" ry="18"/>
<text text-anchor="middle" x="271.741" y="-374.3" font-family="Times,serif" font-size="14.00">(9, 2.33, 2, 12.33)</text>
</g>
<!-- (9, 2.33, 2, 12.33)&#45;&gt;(3, 16.0, 2, 1.0, [&#39;file1&#39;]) -->
<g id="edge9" class="edge"><title>(9, 2.33, 2, 12.33)&#45;&gt;(3, 16.0, 2, 1.0, [&#39;file1&#39;])</title>
<path fill="none" stroke="black" d="M271.741,-359.697C271.741,-351.983 271.741,-342.712 271.741,-334.112"/>
<polygon fill="black" stroke="black" points="275.241,-334.104 271.741,-324.104 268.241,-334.104 275.241,-334.104"/>
</g>
<!-- (5, 31.67, 2, 4.0, [&#39;file1&#39;])&#45;&gt;(8, 35.67, 2, 12.0, [&#39;file1&#39;, &#39;file2&#39;]) -->
<g id="edge10" class="edge"><title>(5, 31.67, 2, 4.0, [&#39;file1&#39;])&#45;&gt;(8, 35.67, 2, 12.0, [&#39;file1&#39;, &#39;file2&#39;])</title>
<path fill="none" stroke="black" d="M352.332,-144.055C347.336,-135.922 341.24,-125.998 335.677,-116.943"/>
<polygon fill="black" stroke="black" points="338.57,-114.964 330.353,-108.275 332.605,-118.628 338.57,-114.964"/>
</g>
<!-- (13, 26.5, 4, 18.5)&#45;&gt;End &#39;48.5&#39; -->
<g id="edge11" class="edge"><title>(13, 26.5, 4, 18.5)&#45;&gt;End &#39;48.5&#39;</title>
<path fill="none" stroke="black" d="M151.532,-77.6097C161.564,-75.6473 171.954,-73.6959 181.741,-72 290.756,-53.1091 419.057,-35.3246 489.583,-25.9303"/>
<polygon fill="black" stroke="black" points="490.108,-29.3914 499.56,-24.606 489.187,-22.4523 490.108,-29.3914"/>
</g>
<!-- (1, 0.0, 3, 41.0) -->
<g id="node14" class="node"><title>(1, 0.0, 3, 41.0)</title>
<ellipse fill="none" stroke="black" cx="702.741" cy="-90" rx="66.8882" ry="18"/>
<text text-anchor="middle" x="702.741" y="-86.3" font-family="Times,serif" font-size="14.00">(1, 0.0, 3, 41.0)</text>
</g>
<!-- (1, 0.0, 3, 41.0)&#45;&gt;End &#39;48.5&#39; -->
<g id="edge12" class="edge"><title>(1, 0.0, 3, 41.0)&#45;&gt;End &#39;48.5&#39;</title>
<path fill="none" stroke="black" d="M669.2,-74.3257C643.655,-63.1499 608.439,-47.7429 581.656,-36.0252"/>
<polygon fill="black" stroke="black" points="582.768,-32.6914 572.203,-31.8897 579.962,-39.1045 582.768,-32.6914"/>
</g>
<!-- (7, 17.0, 2, 14.67)&#45;&gt;(5, 31.67, 2, 4.0, [&#39;file1&#39;]) -->
<g id="edge13" class="edge"><title>(7, 17.0, 2, 14.67)&#45;&gt;(5, 31.67, 2, 4.0, [&#39;file1&#39;])</title>
<path fill="none" stroke="black" d="M371.775,-215.697C370.452,-207.983 368.863,-198.712 367.389,-190.112"/>
<polygon fill="black" stroke="black" points="370.813,-189.369 365.673,-180.104 363.913,-190.552 370.813,-189.369"/>
</g>
<!-- (6, 0.0, 1, 14.5) -->
<g id="node16" class="node"><title>(6, 0.0, 1, 14.5)</title>
<ellipse fill="none" stroke="black" cx="552.741" cy="-306" rx="66.8882" ry="18"/>
<text text-anchor="middle" x="552.741" y="-302.3" font-family="Times,serif" font-size="14.00">(6, 0.0, 1, 14.5)</text>
</g>
<!-- (6, 0.0, 1, 14.5)&#45;&gt;(0, 16.0, 1, 4.0) -->
<g id="edge18" class="edge"><title>(6, 0.0, 1, 14.5)&#45;&gt;(0, 16.0, 1, 4.0)</title>
<path fill="none" stroke="black" d="M552.741,-287.697C552.741,-279.983 552.741,-270.712 552.741,-262.112"/>
<polygon fill="black" stroke="black" points="556.241,-262.104 552.741,-252.104 549.241,-262.104 556.241,-262.104"/>
</g>
</g>
</svg>
